<svg width="523" height="326" viewBox="0 0 523 326" fill="none" xmlns="http://www.w3.org/2000/svg">
<path fill-rule="evenodd" clip-rule="evenodd" d="M283.695 8.06163C281.319 22.1276 280.424 23.6281 271.782 28.033L263.321 32.3454L259.631 24.617L255.942 16.8907L237.587 18.3827C204.51 21.0699 171.3 32.0101 152.351 46.4608L143.565 53.1616L128.676 50.0402C103.129 44.6829 71.7049 50.9861 39.3923 67.9477C25.6547 75.1602 24.3184 76.435 25.5105 81.1882C26.3842 84.66 25.7063 87.2828 23.5136 88.9058C20.6021 91.0642 21.6931 95.5228 32.4525 125.42L44.7074 159.474L22.3537 180.357L0 201.24L7.40031 206.797C19.623 215.979 49.0757 230.806 91.1923 248.982C113.088 258.432 133.238 266.821 135.969 267.627C140.182 268.867 144.26 265.838 162.867 247.649C191.166 219.984 202.1 214.558 243.976 207.403C255.219 205.483 265.682 203.51 267.225 203.018C269.127 202.411 267.272 198.512 261.46 190.897C256.747 184.723 253.317 178.983 253.838 178.143C254.359 177.3 257.789 175.952 261.458 175.148C267.44 173.835 269.288 174.823 279.254 184.657C285.371 190.691 292.07 195.629 294.142 195.629C301.123 195.629 300.454 189.474 292.408 179.665C283.316 168.581 282.595 169.213 307.417 166.504C320.167 165.111 341.413 158.442 346.866 154.121C349.005 152.425 352.796 155.19 362.467 165.5C369.493 172.992 375.24 180.176 375.24 181.464C375.24 182.752 371.849 186.51 367.704 189.814C351.804 202.487 346.412 224.765 355.163 241.619L359.51 249.986L351.208 257.48C346.642 261.601 342.308 267.509 341.576 270.609C340.845 273.709 338.314 278.374 335.951 280.973C333.591 283.574 332.216 287.151 332.896 288.922C334.869 294.058 415.844 291.982 437.107 286.252C445.689 283.939 452.706 282.677 452.704 283.447C452.697 285.67 433.283 298.197 421.506 303.577C412.046 307.898 407.368 308.49 382.772 308.472C353.095 308.451 341.839 306.278 329.954 298.278C320.46 291.885 315.128 282.357 313.537 268.94L312.24 257.994L325.147 245.622C339.379 231.979 341.959 226.876 338.809 218.597C333.404 204.396 311.299 202.272 291.95 214.095C271.417 226.646 266.568 250.072 279.18 275.82C295.137 308.402 327.367 325.37 373.088 325.254C415.039 325.148 444.057 313.828 471.147 286.994C510.432 248.083 527.92 202.47 521.809 154.861C516.681 114.916 503.563 94.8027 465.802 68.9904C441.019 52.0481 400.499 38.3927 356.411 32.1261C346.648 30.7374 338.658 29.1982 338.658 28.7059C338.658 28.2114 340.836 26.9344 343.5 25.8639C347.421 24.2902 347.597 23.8947 344.434 23.7829C342.286 23.7098 338.732 24.6084 336.537 25.78C329.864 29.3486 306.486 20.885 297.091 11.5013C292.731 7.14583 289.165 2.7775 289.165 1.79076C289.165 0.806164 288.24 0 287.11 0C285.98 0 284.444 3.62881 283.695 8.06163ZM318.928 26.5991L332.498 30.402L328.777 36.1613C317.925 52.9574 315.345 56.0595 314.013 53.9076C311.835 50.3884 305.057 51.1194 293.4 56.1283C283.575 60.3505 278.72 66.2322 281.436 70.6199C282.07 71.6475 278.75 73.9929 274.059 75.8352C268.357 78.0732 265.066 78.4386 264.141 76.9424C262.906 74.9452 257.001 75.1495 236.496 77.8969C232.304 78.458 228.738 70.8908 223.817 50.9839L222.339 44.9968L231.316 49.5737C238.454 53.2111 241.322 53.6819 245.299 51.8739C249.338 50.0337 250.698 50.3024 252.357 53.2648C253.487 55.2813 255.146 56.1992 256.043 55.3028C256.941 54.4063 256.53 52.5274 255.129 51.1279C250.752 46.7553 252.353 44.2702 256.9 48.3827C261.89 52.8929 265.305 51.1709 261.191 46.22C259.669 44.3884 259.127 42.1914 259.984 41.3336C260.842 40.478 262.906 41.641 264.571 43.9176C266.239 46.1942 268.273 47.3852 269.095 46.564C269.917 45.7449 269.441 43.9284 268.04 42.5289C266.639 41.1315 265.495 38.5604 265.495 36.8169C265.495 34.5253 266.984 35.0455 270.874 38.6958C276.633 44.1004 277.687 43.2361 273.917 36.2021C271.827 32.3003 272.084 31.9993 276.338 33.3494C279.357 34.306 280.601 34.0566 279.742 32.6679C278.998 31.4619 279.805 27.732 281.539 24.3762C283.273 21.0183 285.253 15.5256 285.942 12.1698L287.192 6.06664L296.275 14.4293C302.642 20.2938 309.414 23.9312 318.928 26.5991ZM257.479 26.7646L261.019 34.1813L251.256 42.7675C240.8 51.9621 239.026 52.0029 225.147 43.3651C220.632 40.5554 220.305 40.6994 220.305 45.5106C220.305 48.3483 222.616 57.7213 225.442 66.3376C231.361 84.3913 230.942 87.9814 222.169 94.463C214.25 100.313 210.865 108.366 213.925 114.077C216.92 119.671 220.695 119.314 226.761 112.863C234.062 105.1 244.836 105.702 261.656 114.817C269.092 118.846 280.659 123.833 287.358 125.897C299.176 129.539 304.228 134.597 304.228 142.792C304.228 146.395 294.683 148.334 276.958 148.334C263.244 148.334 263.056 148.252 252.379 137.585C238.359 123.579 227.841 123.534 235.329 137.512C236.898 140.44 236.621 141.769 234.254 142.678C226.304 145.724 233.124 157.385 244.514 160.222C247.769 161.035 250.431 162.32 250.431 163.077C250.431 164.653 192.483 185.893 191.636 184.631C191.33 184.177 186.925 170.262 181.847 153.708C176.766 137.155 166.452 108.133 158.925 89.2154L145.241 54.8191L149.958 50.9753C158.066 44.3669 182.189 32.8356 197.839 28.0867C210.228 24.3268 227.047 21.631 250.571 19.6338C252.452 19.4748 255.501 22.6199 257.479 26.7646ZM355.159 34.6177C367.444 36.7546 368.785 37.4941 368.785 42.1419C368.785 45.0806 370.056 47.2949 371.744 47.2949C373.37 47.2949 377.728 47.899 381.427 48.6385C385.772 49.507 388.152 49.1265 388.152 47.5636C388.152 46.2329 386.215 45.1451 383.848 45.1451C381.481 45.1451 379.544 43.8187 379.544 42.1978C379.544 38.3347 392.432 40.6564 414.2 48.4386C422.952 51.5686 433.274 55.0599 437.141 56.1971C446.857 59.0563 477.289 79.9735 490.844 93.1086C502.972 104.861 510.325 118.244 516.253 139.354C521.633 158.502 519.763 194.634 512.173 218.247C498.816 259.793 460.87 302.062 426.526 313.649C410.903 318.92 404.127 319.344 402.518 315.152C401.724 313.086 403.512 311.736 408.205 310.852C424.142 307.858 459.164 286.276 459.164 279.448C459.164 278.53 450.207 280.029 439.259 282.776C423.066 286.844 411.633 287.974 377.96 288.841C355.193 289.428 336.132 289.204 335.603 288.346C332.807 283.83 341.092 279.034 360.227 274.089C377.429 269.643 379.544 267.954 379.544 258.658C379.544 254.279 380.42 251.811 381.696 252.598C382.976 253.389 383.848 250.829 383.848 246.275C383.848 240.761 382.905 238.624 380.476 238.624C378.27 238.624 377.489 237.319 378.221 234.862C378.836 232.792 380.007 228.198 380.822 224.651C382.841 215.878 390.172 201.62 394.383 198.28C401.233 192.847 410.949 188.358 421.506 185.753C430.638 183.498 431.234 183.068 425.45 182.913C416.481 182.672 401.414 189.266 391.941 197.574L384.338 204.243L382.912 194.739C381.408 184.721 374.778 174.157 360.745 159.42C352.4 150.656 352.338 150.473 356.762 147.532C359.233 145.888 363.056 141.285 365.26 137.301C369.127 130.313 368.978 130.375 360.956 139.124C339.158 162.899 293.942 171.579 252.469 159.954C228.134 153.132 226.348 141.263 250.591 147.468C270.22 152.492 301.706 150.839 314.988 144.086C326.526 138.219 341.492 126.802 339.825 125.136C339.175 124.484 336.466 125.91 333.808 128.3C325.844 135.461 325.261 135.457 301.782 128.012C278.89 120.755 259.887 112.242 250.883 105.208C246.341 101.66 245.213 101.611 236.491 104.58C231.286 106.351 225.881 109.182 224.48 110.87C220.501 115.658 216.001 114.533 216.001 108.755C216.001 105.62 218.584 101.4 222.53 98.0832L229.061 92.5927L235.895 96.746C239.657 99.0312 243.255 100.108 243.892 99.1409C244.529 98.1756 249.409 95.9528 254.735 94.205C260.829 92.2036 265.385 89.0972 267.024 85.8209C270.224 79.4361 280.467 74.6808 284.276 77.8152C287.041 80.0896 316.967 72.3483 317.314 69.2677C317.411 68.4164 317.706 65.2992 317.972 62.3433C318.642 54.8857 333.716 32.2465 338.011 32.2465C339.947 32.2465 347.666 33.3128 355.159 34.6177ZM366.633 51.2333C366.633 53.6926 385.84 57.8911 387.181 55.7241C387.775 54.7632 384.605 52.9617 380.138 51.7234C370.302 48.9932 366.633 48.8621 366.633 51.2333ZM134.589 53.8087C141.826 55.8166 143.053 57.373 149.414 72.6063C164.772 109.395 188.027 176.782 188.027 184.497C188.027 186.084 184.212 187.032 177.805 187.036C159.017 187.047 130.075 191.602 102.436 198.897C87.3749 202.872 74.4485 205.456 73.7083 204.639C72.9681 203.822 67.7498 189.126 62.114 171.981C56.4782 154.837 48.0278 131.136 43.3345 119.312C38.6413 107.488 32.9797 93.2226 30.7525 87.6095L26.7048 77.4046L44.1802 68.6271C53.7905 63.8008 68.5416 58.0459 76.9619 55.8402C93.88 51.4096 122.328 50.4056 134.589 53.8087ZM414.732 55.2168C415.543 56.0273 419.334 57.8309 423.161 59.2261C426.984 60.6213 431.807 62.4809 433.879 63.358C436.216 64.349 437.645 64.0094 437.645 62.4637C437.645 59.4948 424.68 53.7442 417.987 53.7442C415.386 53.7442 413.92 54.4063 414.732 55.2168ZM300.024 62.1584C298.702 64.6242 295.879 66.6428 293.751 66.6428C286.682 66.6428 286.759 63.659 293.925 59.9485C302.201 55.6618 303.292 56.0574 300.024 62.1584ZM313.682 59.2949C316.337 66.2086 314.758 68.468 304.921 71.8152C291.976 76.2222 284.861 76.2415 284.861 71.8732C284.861 69.4547 286.107 68.8979 289.271 69.9019C294.62 71.598 303.353 66.3354 305.287 60.2516C306.933 55.0663 311.842 54.5052 313.682 59.2949ZM366.633 59.7722C366.633 62.0101 373.756 64.4157 380.512 64.463C386.626 64.506 381.969 60.9309 373.626 59.1745C369.557 58.3189 366.633 58.5683 366.633 59.7722ZM416.126 64.4931C416.126 65.6754 417.848 66.6428 419.95 66.6428C422.054 66.6428 425.865 68.1047 428.418 69.8911C431.196 71.8345 433.576 72.3032 434.346 71.0563C435.76 68.7711 424.779 62.3433 419.461 62.3433C417.626 62.3433 416.126 63.3107 416.126 64.4931ZM367.709 68.7926C368.44 69.975 371.944 70.9424 375.494 70.9424C379.249 70.9424 381.395 70.0438 380.62 68.7926C379.888 67.6102 376.385 66.6428 372.835 66.6428C369.08 66.6428 366.934 67.5414 367.709 68.7926ZM415.1 70.8607C414.484 71.8582 417.028 73.7349 420.753 75.0334C428.936 77.8818 429.037 77.8883 429.037 75.4526C429.037 72.7654 416.481 68.6292 415.1 70.8607ZM458.404 74.5669C457.675 75.2956 458.759 77.1487 460.812 78.6837C464.134 81.171 463.96 81.33 459.213 80.1305C454.662 78.9825 455.264 80.0982 463.334 87.7664C474.093 97.9907 477.435 97.8962 469.942 87.5773C465.828 81.9105 465.688 81.315 469.189 84.3784C475.798 90.1591 477.782 88.8392 471.911 82.5683C465.742 75.9793 460.248 72.7245 458.404 74.5669ZM261.873 78.789C262.643 79.5586 260.812 82.4651 257.806 85.2491C253.222 89.4927 251.576 89.9184 247.619 87.8868C243.728 85.8897 243.371 85.9628 245.59 88.3082C249.822 92.7797 248.772 94.6952 242.362 94.205C237.555 93.8395 236.36 92.6292 235.997 87.76C235.618 82.7059 236.629 81.4547 242.452 79.7736C250.832 77.353 259.971 76.8908 261.873 78.789ZM413.974 79.3114C413.974 81.3795 419.208 83.884 423.296 83.7722C424.678 83.7356 423.929 82.2845 421.633 80.5475C416.89 76.9639 413.974 76.4931 413.974 79.3114ZM279.391 81.8374C278.61 83.1015 276.63 83.6196 274.991 82.9918C272.542 82.0524 272.484 82.6113 274.672 86.1369C276.85 89.6475 276.749 90.7826 274.119 92.4164C271.851 93.8266 273.235 94.2631 278.84 93.9062C287.59 93.3451 292.787 90.2903 284.986 90.2903C280.84 90.2903 280.297 89.4691 281.442 84.9159C282.843 79.3372 281.855 77.856 279.391 81.8374ZM261.458 88.7145C259.332 90.8213 259.086 90.5741 260.253 87.5106C261.062 85.391 262.265 84.1978 262.927 84.86C263.59 85.5199 262.929 87.2548 261.458 88.7145ZM411.822 85.7607C411.822 88.1448 418.441 90.8428 420.137 89.1488C420.821 88.4651 419.956 87.0076 418.215 85.9069C414.191 83.3637 411.822 83.31 411.822 85.7607ZM452.732 87.6031C452.745 88.4888 456.134 92.4959 460.263 96.5031C464.918 101.022 467.771 102.606 467.771 100.669C467.771 98.9496 465.055 94.9445 461.735 91.7672C455.686 85.9757 452.689 84.5912 452.732 87.6031ZM39.1341 117.7C45.013 132.776 54.4189 159.137 60.0374 176.281C65.656 193.425 70.5988 208.072 71.0206 208.831C71.4445 209.587 86.1935 206.492 103.798 201.949C125.474 196.356 145.103 192.869 164.606 191.147C190.779 188.834 196.331 187.542 225.487 176.967C255.26 166.171 263.343 164.569 263.343 169.471C263.343 170.528 253.9 174.065 242.362 177.328C230.823 180.591 214.603 185.555 206.318 188.356C198.033 191.157 187.123 193.456 182.073 193.464C170.209 193.483 129.266 202.334 97.1595 211.821C83.2799 215.921 70.6742 219.276 69.1442 219.276C67.4377 219.276 62.7789 207.455 57.0721 188.642C51.9614 171.792 42.5383 143.6 36.1322 125.991C23.8364 92.1928 23.3199 90.2903 26.466 90.2903C27.557 90.2903 33.2573 102.624 39.1341 117.7ZM59.9772 94.6092C59.1551 95.9377 59.1164 97.6597 59.8911 98.4336C60.6658 99.2075 62.1183 98.5174 63.1168 96.9008C65.0147 93.8374 71.8254 95.1444 71.8254 98.5755C71.8254 99.659 69.4045 102.129 66.4457 104.066C58.2019 109.462 59.4736 113.994 69.1356 113.654L77.2051 113.372L69.6735 112.005L62.142 110.64L68.1672 106.596C75.9506 101.374 75.4104 93.8052 67.186 92.855C64.0442 92.4916 60.7992 93.2806 59.9772 94.6092ZM448.404 96.2903C448.404 99.1258 457.995 107.488 461.249 107.488C463.282 107.488 462.929 106.16 460.059 102.989C455.176 97.5995 448.404 93.7063 448.404 96.2903ZM83.1228 104.554C83.1228 107.716 84.1169 108.916 86.1096 108.153C87.7515 107.523 90.777 108.307 92.8342 109.898C96.0018 112.349 95.9673 112.078 92.5953 108.125C90.409 105.558 89.1265 102.639 89.7484 101.635C90.3681 100.631 89.1308 99.8116 87.0005 99.8116C84.4354 99.8116 83.1228 101.417 83.1228 104.554ZM105.808 101.14L110.74 103.118L105.961 109.576C103.333 113.127 101.597 116.406 102.104 116.859C104.08 118.624 125.411 119.637 124.346 117.915C123.724 116.909 119.401 116.088 114.736 116.088C105.365 116.088 104.59 115.041 109.744 109.35C114.228 104.401 112.1 98.8507 105.784 99.0248L100.876 99.1624L105.808 101.14ZM448.342 106.347C451.088 109.266 454.318 111.048 455.523 110.305C456.792 109.52 455.66 107.295 452.82 104.997C445.669 99.2118 442.525 100.162 448.342 106.347ZM131.069 105.072C132.216 106.151 136.543 107.723 140.686 108.563C145.581 109.557 147.464 109.359 146.065 108C144.882 106.848 140.554 105.278 136.448 104.507C131.914 103.658 129.803 103.879 131.069 105.072ZM439.797 109.275C439.797 110.184 440.959 112.089 442.379 113.508C445.899 117.025 448.527 116.758 447.094 113.028C445.813 109.694 439.797 106.598 439.797 109.275ZM133.027 112.932C135.325 114.667 138.23 116.057 139.483 116.019C140.737 115.982 139.881 114.531 137.585 112.794C135.286 111.059 132.381 109.668 131.129 109.707C129.874 109.744 130.731 111.195 133.027 112.932ZM502.201 127.986C502.201 128.621 503.858 131.764 505.883 134.973C509.543 140.775 509.539 140.788 505.175 137.048C498.354 131.2 497.116 132.6 502.468 140.109C505.143 143.863 507.712 145.791 508.177 144.396C508.644 143 509.909 142.405 510.992 143.074C513.97 144.912 513.354 140.283 509.677 133.178C506.849 127.716 502.201 124.487 502.201 127.986ZM319.292 137.6C319.292 138.396 316.843 140.158 313.852 141.521C308.943 143.755 308.207 143.458 306.32 138.501C305.169 135.478 304.228 132.675 304.228 132.273C304.228 131.869 307.618 132.578 311.76 133.847C315.902 135.117 319.292 136.807 319.292 137.6ZM493.594 138.858C493.594 139.559 495.453 142.493 497.725 145.38C502.694 151.69 505.56 148.861 500.914 142.235C497.885 137.914 493.594 135.936 493.594 138.858ZM490.949 151.505C494.734 159.104 497.897 161.306 497.897 156.338C497.897 152.737 491.754 144.035 489.212 144.035C488.121 144.035 488.903 147.397 490.949 151.505ZM485.645 156.933C488.02 163.223 491.442 165.676 491.442 161.091C491.442 157.557 487.211 150.484 485.098 150.484C484.059 150.484 484.304 153.386 485.645 156.933ZM476.379 156.522C476.379 157.479 477.801 160.138 479.538 162.434C482.763 166.695 483.88 164.309 481.528 158.184C480.179 154.672 476.379 153.444 476.379 156.522ZM469.923 157.907C469.923 160.65 475.161 169.832 476.725 169.832C479.094 169.832 479.01 168.937 476.032 162.409C473.908 157.748 469.923 154.813 469.923 157.907ZM462.488 162.308C463.332 164.672 464.492 168.772 465.066 171.418C465.641 174.065 466.968 175.701 468.016 175.054C471.182 173.102 470.179 168.447 465.439 163.084C461.544 158.674 461.156 158.571 462.488 162.308ZM67.7067 223.576C69.68 223.576 80.8568 220.611 92.5415 216.991C133.195 204.389 189.404 193.817 198.076 197.142C203.273 199.135 194.504 211.043 167.808 238.244C144.292 262.205 141.213 264.634 135.751 263.542C120.01 260.397 37.9183 222.52 12.7434 206.786L4.22844 201.463L24.5788 182.554L44.9269 163.643L54.5222 193.608C61.7955 216.329 64.9846 223.576 67.7067 223.576ZM454.86 164.943C454.86 165.997 456.34 168.737 458.15 171.033C461.337 175.075 461.423 175.041 460.84 169.999C460.287 165.197 454.86 160.607 454.86 164.943ZM450.556 171.855C450.556 174.288 451.524 176.281 452.708 176.281C453.892 176.281 454.86 174.888 454.86 173.183C454.86 171.478 453.892 169.488 452.708 168.757C451.524 168.026 450.556 169.421 450.556 171.855ZM295.621 190.381C295.621 193.928 292.221 194.528 290.241 191.329C288.485 188.492 291.059 184.467 293.617 186.047C294.719 186.727 295.621 188.677 295.621 190.381ZM380.704 198.774C381.649 206.326 381.225 213.042 379.518 217.585C378.057 221.471 376.256 234.286 375.514 246.06L374.164 267.472L365.51 269.968C339.448 277.484 337.348 275.914 352.805 260.47L362.65 250.637L357.896 240.497C351.92 227.751 352.865 212.105 360.263 201.319C364.799 194.707 373.99 187.236 377.775 187.088C378.578 187.056 379.895 192.314 380.704 198.774ZM508.625 205.41C508.597 208.833 508.222 209.022 506.589 206.44C503.964 202.291 502.898 203.63 501.078 213.365C500.071 218.748 500.366 221.426 501.962 221.426C503.277 221.426 504.353 219.975 504.353 218.202C504.353 216.428 505.694 214.977 507.329 214.977C511.007 214.977 513.585 206.141 510.738 203.297C509.397 201.958 508.646 202.71 508.625 205.41ZM388.091 210.789C386.792 213.216 386.06 216.845 386.469 218.851C387 221.476 388.248 220.444 390.908 215.183C395.218 206.657 395.27 206.378 392.531 206.378C391.39 206.378 389.391 208.364 388.091 210.789ZM396.03 210.297C392.219 214.502 391.278 219.276 394.261 219.276C396.238 219.276 401.724 208.472 400.413 207.162C399.968 206.715 397.994 208.126 396.03 210.297ZM330.836 212.984C334.934 216.202 336.507 219.425 336.507 224.595C336.507 230.679 334.54 233.452 323.376 243.115L310.243 254.479L311.069 269.056C311.657 279.468 313.163 285.341 316.337 289.613C322.493 297.9 336.119 306.981 345.114 308.791L352.646 310.306L345.652 312.149C341.807 313.161 338.658 314.948 338.658 316.119C338.658 319.277 328.48 316.334 314.988 309.274C296.479 299.59 276.254 272.21 276.254 256.839C276.254 253.776 277.102 251.792 278.137 252.432C279.172 253.071 280.622 249.827 281.36 245.222C282.096 240.617 283.291 235.316 284.011 233.437C284.732 231.56 284.278 230.025 283.002 230.025C281.724 230.025 279.772 233.17 278.662 237.012C277.552 240.854 276.555 242.257 276.448 240.129C275.948 230.189 290.207 214.715 303.551 210.714C314.486 207.433 324.876 208.298 330.836 212.984ZM400.964 213.012C397.775 218.965 400.262 221.153 404.246 215.895C407.927 211.032 408.334 208.528 405.442 208.528C404.301 208.528 402.285 210.546 400.964 213.012ZM408.736 214.704C404.366 223.146 407.262 225.137 412.173 217.066C416.698 209.633 416.939 208.528 414.03 208.528C412.877 208.528 410.495 211.307 408.736 214.704ZM493.594 216.052C493.594 220.19 494.562 223.576 495.746 223.576C496.929 223.576 497.897 220.19 497.897 216.052C497.897 211.913 496.929 208.528 495.746 208.528C494.562 208.528 493.594 211.913 493.594 216.052ZM485.625 218.202C485.509 222.34 486.172 225.726 487.099 225.726C489.413 225.726 491.412 217.4 489.989 213.696C487.928 208.332 485.845 210.484 485.625 218.202ZM474.227 219.016C474.227 221.918 474.864 223.655 475.643 222.877C476.422 222.099 478.358 222.542 479.946 223.858C482.255 225.773 482.834 224.932 482.834 219.674C482.834 214.42 481.967 213.16 478.531 213.418C475.483 213.648 474.227 215.282 474.227 219.016ZM414.717 218.294C412.715 223.505 415.508 224.447 418.179 219.461C419.844 216.351 419.877 214.977 418.287 214.977C417.023 214.977 415.418 216.469 414.717 218.294ZM286.406 233.643C283.893 237.891 282.641 249.076 284.545 250.252C285.692 250.962 287.297 247.602 288.113 242.788C289.518 234.475 288.653 229.845 286.406 233.643ZM292.931 237.704C292.044 238.605 291.317 241.791 291.317 244.788C291.317 248.7 291.973 249.577 293.652 247.901C294.934 246.619 295.662 243.431 295.266 240.817C294.87 238.205 293.818 236.803 292.931 237.704ZM297.953 244.334C295.621 252.776 297.413 259.421 300.144 252.456C301.564 248.831 301.792 248.78 301.926 252.06C302.096 256.295 306.363 257.319 306.41 253.135C306.425 251.658 306.983 248.03 307.646 245.074C308.831 239.787 308.792 239.77 305.207 243.999C301.648 248.202 301.597 248.165 302.937 242.386C305.007 233.469 300.467 235.245 297.953 244.334ZM386 242.797C386 245.093 386.968 247.567 388.152 248.298C389.372 249.053 390.303 247.245 390.303 244.126C390.303 241.101 389.335 238.624 388.152 238.624C386.968 238.624 386 240.501 386 242.797ZM393.415 240.961C392.621 242.247 393.047 244.375 394.364 245.691C396.122 247.447 396.759 246.826 396.759 243.354C396.759 238.162 395.642 237.362 393.415 240.961ZM401.063 244.947C401.063 247.243 402.031 249.717 403.215 250.448C404.435 251.203 405.367 249.395 405.367 246.275C405.367 243.251 404.398 240.774 403.215 240.774C402.031 240.774 401.063 242.651 401.063 244.947ZM304.228 279.612C304.228 283.327 308.508 290.219 310.815 290.219C311.988 290.219 311.444 287.317 309.608 283.769C306.163 277.114 304.228 275.62 304.228 279.612ZM297.82 281.224C297.751 285.296 301.868 292.369 304.304 292.369C307.428 292.369 306.746 289.733 302.076 283.769C299.761 280.814 297.846 279.668 297.82 281.224ZM293.275 287.708C295.614 292.076 302.076 298.001 302.076 295.78C302.076 295.004 300.512 291.982 298.601 289.069C294.562 282.91 290.095 281.768 293.275 287.708ZM383.848 313.797C391.582 313.957 392.763 314.442 389.72 316.214C387.624 317.433 386.471 319.337 387.157 320.447C387.891 321.633 382.083 322.465 373.088 322.465C364.184 322.465 358.29 321.627 359.009 320.464C359.691 319.363 359.263 317.856 358.06 317.112C352.869 313.907 356.442 311.566 365.019 312.551C370.05 313.127 378.522 313.688 383.848 313.797Z" fill="black"/>
</svg>
