<svg width="49" height="19" viewBox="0 0 49 19" fill="none" xmlns="http://www.w3.org/2000/svg">
<path d="M12.25 3.06806C13.8745 3.06806 15.4324 3.71337 16.581 4.86203C17.7297 6.01069 18.375 7.56861 18.375 9.19306C18.375 10.8175 17.7297 12.3754 16.581 13.5241C15.4324 14.6728 13.8745 15.3181 12.25 15.3181C10.6255 15.3181 9.06763 14.6728 7.91897 13.5241C6.77031 12.3754 6.125 10.8175 6.125 9.19306C6.125 7.56861 6.77031 6.01069 7.91897 4.86203C9.06763 3.71337 10.6255 3.06806 12.25 3.06806ZM20.2891 4.74325C19.367 3.07496 17.9489 1.73476 16.2312 0.908364C14.5135 0.0819639 12.5813 -0.189721 10.7023 0.130956C8.82338 0.451633 7.09066 1.34879 5.7443 2.69812C4.39794 4.04745 3.5046 5.78214 3.18806 7.66181H1.53125C1.12514 7.66181 0.735658 7.82314 0.448493 8.11031C0.161328 8.39747 0 8.78695 0 9.19306C0 9.59918 0.161328 9.98866 0.448493 10.2758C0.735658 10.563 1.12514 10.7243 1.53125 10.7243H3.18806C3.5681 12.9995 4.79009 15.0485 6.61127 16.4643C8.43246 17.88 10.7196 18.5589 13.0182 18.366C15.3169 18.1731 17.4589 17.1226 19.0187 15.4232C20.5785 13.7238 21.4419 11.4998 21.4375 9.19306C21.4375 8.38084 21.7602 7.60188 22.3345 7.02755C22.9088 6.45322 23.6878 6.13056 24.5 6.13056C25.3122 6.13056 26.0912 6.45322 26.6655 7.02755C27.2398 7.60188 27.5625 8.38084 27.5625 9.19306C27.5581 11.4998 28.4215 13.7238 29.9813 15.4232C31.5411 17.1226 33.6831 18.1731 35.9818 18.366C38.2804 18.5589 40.5675 17.88 42.3887 16.4643C44.2099 15.0485 45.4319 12.9995 45.8119 10.7243H47.4688C47.8749 10.7243 48.2643 10.563 48.5515 10.2758C48.8387 9.98866 49 9.59918 49 9.19306C49 8.78695 48.8387 8.39747 48.5515 8.11031C48.2643 7.82314 47.8749 7.66181 47.4688 7.66181H45.8119C45.4954 5.78214 44.6021 4.04745 43.2557 2.69812C41.9093 1.34879 40.1766 0.451633 38.2976 0.130956C36.4187 -0.189721 34.4865 0.0819639 32.7688 0.908364C31.0511 1.73476 29.633 3.07496 28.7109 4.74325C27.5743 3.66513 26.0666 3.06535 24.5 3.06806C22.8708 3.06806 21.3885 3.70506 20.2891 4.74325ZM42.875 9.19306C42.875 10.8175 42.2297 12.3754 41.081 13.5241C39.9324 14.6728 38.3745 15.3181 36.75 15.3181C35.1255 15.3181 33.5676 14.6728 32.419 13.5241C31.2703 12.3754 30.625 10.8175 30.625 9.19306C30.625 7.56861 31.2703 6.01069 32.419 4.86203C33.5676 3.71337 35.1255 3.06806 36.75 3.06806C38.3745 3.06806 39.9324 3.71337 41.081 4.86203C42.2297 6.01069 42.875 7.56861 42.875 9.19306Z" fill="black"/>
</svg>
